# xmcd
#
# Track frame offsets:
#	150
#	72385
#	135328
#	197655
#
# Disc length: 3465 seconds
#
# Revision: 0
# Processed by: cddbd v1.5.1PL0 Copyright (c) Steve Scherf et al.
# Submitted via: dBpowerAMP V4.0
#
DISCID=330d8704
DTITLE=Prince - N.E.W.S.
DYEAR=1900
DGENRE=Blues
TTITLE0=North
TTITLE1=East
TTITLE2=West
TTITLE3=South
EXTD=Prince - N.E.W.S
EXTT0=
EXTT1=
EXTT2=
EXTT3=
PLAYORDER=
